<?xml version="1.0" standalone="no"?>
<!DOCTYPE svg PUBLIC "-//W3C//DTD SVG 20010904//EN"
 "http://www.w3.org/TR/2001/REC-SVG-20010904/DTD/svg10.dtd">
<svg version="1.0" xmlns="http://www.w3.org/2000/svg"
 width="2000.000000pt" height="2000.000000pt" viewBox="0 0 2000.000000 2000.000000"
 preserveAspectRatio="xMidYMid meet">
<metadata>
Created by potrace 1.14, written by Peter Selinger 2001-2017
</metadata>
<g transform="translate(0.000000,2000.000000) scale(0.100000,-0.100000)"
fill="#000000" stroke="none">
<path d="M9820 19590 c-380 -53 -704 -234 -1046 -582 -148 -151 -252 -276
-372 -449 l-74 -105 -66 14 c-103 22 -286 11 -385 -22 -141 -47 -245 -113
-339 -215 -291 -314 -275 -804 36 -1099 l66 -64 -41 -111 c-111 -302 -239
-699 -329 -1025 -65 -235 -200 -785 -200 -814 0 -10 -5 -18 -12 -18 -6 0 -100
27 -207 59 -933 284 -1730 445 -2531 513 -192 16 -791 16 -940 0 -292 -32
-496 -70 -686 -128 -774 -234 -1184 -738 -1184 -1453 0 -414 118 -823 389
-1346 406 -783 1115 -1651 2121 -2598 l135 -127 -45 -42 c-389 -359 -822 -796
-1090 -1098 -883 -996 -1405 -1912 -1516 -2655 -21 -142 -15 -523 10 -630 120
-520 474 -886 1052 -1085 279 -96 562 -147 947 -171 154 -10 197 -15 197 -26
0 -20 63 -144 101 -199 41 -60 133 -152 193 -193 63 -44 176 -95 256 -117 99
-27 291 -25 394 5 279 78 486 291 558 571 12 47 22 86 23 87 0 1 104 23 231
48 450 91 875 199 1344 342 118 36 222 67 230 70 12 3 22 -26 48 -139 273
-1169 595 -2092 979 -2803 486 -900 1026 -1418 1623 -1556 127 -30 367 -37
501 -15 895 147 1696 1187 2295 2981 143 430 264 861 374 1340 28 120 53 221
54 223 2 2 69 -17 148 -42 1049 -330 2076 -526 2901 -554 200 -7 570 0 663 12
22 3 68 8 104 11 342 34 683 127 943 256 383 191 633 463 756 824 39 114 81
359 81 467 0 84 -20 276 -40 390 -43 244 -165 599 -291 849 l-28 56 26 24 c14
13 44 51 68 84 102 144 145 279 145 460 0 187 -39 311 -145 461 -196 276 -574
394 -894 280 -24 -9 -47 -16 -51 -16 -4 0 -36 35 -71 77 -347 422 -801 896
-1294 1351 l-79 74 109 101 c320 295 797 786 1076 1107 1428 1646 1813 3034
1060 3823 -301 315 -751 504 -1391 583 -179 22 -733 30 -970 15 -806 -54
-1749 -246 -2746 -560 l-92 -28 -17 86 c-25 126 -156 648 -215 856 -358 1262
-811 2228 -1336 2845 -92 109 -279 294 -369 365 -314 250 -611 369 -940 380
-77 2 -169 0 -205 -5z m331 -345 c115 -20 209 -54 338 -121 748 -388 1447
-1646 1924 -3464 70 -265 172 -699 166 -704 -2 -1 -74 -26 -159 -56 -625 -213
-1415 -538 -2159 -887 l-244 -115 -166 80 c-713 344 -1620 720 -2299 953 -85
29 -156 58 -158 64 -11 29 165 731 282 1125 60 199 183 569 238 715 33 86 36
90 63 88 260 -22 441 25 616 157 212 160 331 442 298 702 -23 182 -85 318
-200 440 l-63 68 17 27 c52 81 196 266 288 370 174 196 362 348 554 446 135
68 234 100 373 121 64 9 215 5 291 -9z m-5935 -3905 c344 -26 545 -50 879
-106 404 -67 928 -187 1390 -319 283 -81 487 -144 498 -154 4 -4 -8 -93 -28
-197 -147 -772 -251 -1567 -325 -2484 -13 -156 1 -136 -161 -245 -601 -407
-1414 -1030 -1949 -1494 -58 -50 -108 -90 -112 -88 -19 6 -424 396 -643 618
-972 985 -1599 1894 -1825 2647 -149 497 -123 887 81 1192 232 347 703 560
1382 624 171 16 635 20 813 6z m12393 -35 c569 -60 957 -205 1215 -454 216
-209 316 -459 316 -790 0 -631 -423 -1489 -1195 -2421 -77 -94 -75 -91 -236
-275 -234 -266 -813 -855 -1037 -1053 l-71 -63 -78 69 c-556 487 -1440 1163
-2105 1610 -88 59 -79 34 -98 282 -14 186 -25 298 -60 625 -67 627 -159 1243
-264 1777 l-23 117 76 25 c592 194 1410 391 1966 475 369 55 533 72 915 94
130 8 543 -3 679 -18z m-9097 -719 c602 -209 1303 -498 2043 -841 l80 -37 -80
-40 c-697 -348 -1742 -948 -2425 -1393 -69 -44 -131 -85 -139 -89 -17 -11 -14
26 29 459 64 627 151 1239 251 1770 17 88 33 177 36 198 3 20 9 37 14 37 4 0
90 -29 191 -64z m5142 17 c3 -10 23 -117 45 -238 126 -695 203 -1277 276
-2078 l7 -67 -154 98 c-690 444 -1522 925 -2245 1298 -95 48 -169 91 -165 95
9 9 337 160 547 251 521 229 956 402 1435 572 113 41 212 76 220 79 25 9 28 8
34 -10z m-2426 -1187 c811 -406 1728 -934 2569 -1480 204 -132 212 -139 217
-174 8 -52 34 -581 46 -934 13 -378 13 -1288 0 -1658 -9 -256 -40 -923 -44
-926 0 -1 -105 -69 -232 -152 -836 -543 -1609 -990 -2536 -1466 l-228 -116
-192 96 c-757 379 -1673 900 -2403 1367 -292 187 -485 317 -485 328 0 6 -7
138 -15 292 -48 917 -48 1885 0 2815 8 155 15 295 15 311 0 31 -4 28 330 244
769 498 1620 987 2463 1416 152 77 279 141 282 141 3 0 99 -47 213 -104z
m3552 -2155 c482 -346 995 -748 1428 -1119 72 -63 132 -117 132 -122 0 -18
-583 -501 -950 -786 -271 -211 -863 -645 -994 -730 l-29 -18 6 94 c22 317 31
744 31 1420 0 678 -5 928 -31 1424 l-6 130 99 -69 c54 -38 196 -139 314 -224z
m-7206 -137 c-24 -513 -25 -1743 -1 -2244 9 -189 15 -345 14 -346 -8 -8 -682
486 -1017 745 -333 257 -901 728 -897 743 3 9 255 224 455 387 369 301 869
682 1222 931 96 68 189 133 205 145 17 13 31 22 33 20 2 -2 -5 -173 -14 -381z
m-2003 -1466 c576 -495 1255 -1015 1904 -1460 l141 -96 22 -284 c68 -841 183
-1698 325 -2434 l24 -121 -191 -58 c-381 -116 -792 -227 -1096 -295 -111 -25
-478 -100 -490 -100 -4 0 -31 48 -60 106 -140 282 -436 452 -748 431 -48 -3
-114 -13 -147 -22 -82 -21 -228 -94 -297 -149 -126 -100 -229 -264 -266 -421
-17 -70 -22 -80 -43 -84 -37 -5 -320 18 -465 39 -377 54 -717 176 -929 332
-423 313 -538 808 -340 1462 263 868 1073 1964 2289 3100 110 102 203 186 206
186 3 0 76 -60 161 -132z m11110 65 c432 -395 914 -896 1263 -1311 l79 -94
-22 -29 c-122 -165 -171 -307 -171 -494 0 -529 496 -896 1015 -750 17 5 28
-11 79 -126 103 -230 179 -467 218 -678 24 -135 29 -394 9 -501 -108 -570
-575 -906 -1411 -1014 -801 -103 -1936 40 -3215 405 -198 57 -537 159 -543
164 -1 1 14 85 33 186 100 518 206 1262 270 1909 8 79 44 492 51 581 l6 87
117 78 c614 415 1554 1137 2056 1582 44 39 83 71 86 72 4 0 40 -30 80 -67z
m-8396 -2060 c689 -440 1496 -903 2184 -1253 l163 -83 -48 -25 c-217 -110
-940 -425 -1349 -587 -354 -140 -915 -347 -923 -340 -5 5 -73 371 -111 607
-85 517 -151 1036 -201 1578 -11 124 -22 242 -25 264 l-6 38 33 -20 c18 -11
146 -91 283 -179z m5695 119 c0 -72 -71 -762 -106 -1022 -54 -411 -158 -1068
-202 -1276 l-17 -80 -165 58 c-542 191 -1186 452 -1745 706 -299 136 -335 153
-335 157 0 1 123 67 273 145 742 389 1615 898 2192 1279 50 33 93 60 98 60 4
1 7 -12 7 -27z m-2730 -1758 c748 -353 1430 -634 2248 -924 72 -26 91 -36 88
-49 -3 -9 -19 -79 -36 -156 -96 -438 -236 -945 -384 -1390 -153 -459 -289
-795 -467 -1155 -254 -515 -486 -857 -774 -1145 -167 -167 -285 -257 -445
-339 -189 -96 -312 -128 -500 -128 -181 0 -308 31 -485 120 -363 181 -714 562
-1045 1132 -93 161 -289 561 -375 764 -206 487 -407 1102 -563 1721 -64 252
-134 556 -130 561 2 1 98 36 213 77 788 280 1584 614 2340 981 39 19 75 35 80
35 6 1 112 -47 235 -105z"/>
<path d="M9859 11956 c-2 -2 -33 -6 -69 -9 -87 -7 -256 -42 -360 -75 -47 -14
-87 -27 -90 -27 -3 -1 -16 -6 -30 -12 -14 -6 -45 -19 -70 -29 -102 -40 -383
-200 -410 -233 -3 -3 -36 -31 -75 -62 -65 -52 -169 -154 -245 -239 -40 -44
-159 -211 -194 -270 -54 -95 -138 -273 -157 -335 -6 -22 -15 -44 -19 -50 -4
-5 -10 -21 -13 -35 -3 -14 -12 -50 -20 -80 -23 -83 -47 -204 -55 -278 -9 -87
-9 -360 0 -437 19 -153 36 -239 69 -345 11 -36 22 -72 24 -82 2 -9 11 -30 19
-47 9 -16 16 -35 16 -41 0 -35 159 -328 227 -419 83 -112 216 -259 300 -333
74 -63 209 -161 295 -211 77 -46 219 -118 238 -123 3 0 19 -6 35 -13 97 -42
276 -93 391 -112 38 -6 83 -13 99 -16 70 -12 415 -10 486 2 41 7 90 16 109 19
248 41 513 149 735 298 112 75 123 83 203 153 91 80 215 212 261 279 8 12 18
23 22 26 20 14 137 210 189 315 52 104 130 316 144 387 2 13 9 42 14 66 6 23
10 46 11 50 2 14 11 68 17 102 13 79 12 397 -2 505 -54 413 -240 804 -522
1099 -113 118 -217 207 -337 286 -120 79 -405 222 -405 203 0 -3 -6 -1 -12 5
-25 19 -252 81 -361 97 -18 3 -50 7 -72 11 -47 6 -380 15 -386 10z"/>
</g>
</svg>
